# OBJ file exported from KoreMeshData
# Object: TestOilBarrel

mtllib TestOilBarrelMats.mtl

o TestOilBarrel

v 0.000000 1.500000 0.000000
v 1.000000 1.500000 0.000000
v 0.913545 1.500000 0.406737
v 0.669131 1.500000 0.743145
v 0.309017 1.500000 0.951057
v -0.104528 1.500000 0.994522
v -0.500000 1.500000 0.866025
v -0.809017 1.500000 0.587785
v -0.978148 1.500000 0.207912
v -0.978148 1.500000 -0.207912
v -0.809017 1.500000 -0.587785
v -0.500000 1.500000 -0.866025
v -0.104528 1.500000 -0.994522
v 0.309017 1.500000 -0.951057
v 0.669131 1.500000 -0.743145
v 0.913545 1.500000 -0.406737
v 1.000000 1.500000 -0.000000
v 0.000000 -1.500000 0.000000
v 1.000000 -1.500000 0.000000
v 0.913545 -1.500000 0.406737
v 0.669131 -1.500000 0.743145
v 0.309017 -1.500000 0.951057
v -0.104528 -1.500000 0.994522
v -0.500000 -1.500000 0.866025
v -0.809017 -1.500000 0.587785
v -0.978148 -1.500000 0.207912
v -0.978148 -1.500000 -0.207912
v -0.809017 -1.500000 -0.587785
v -0.500000 -1.500000 -0.866025
v -0.104528 -1.500000 -0.994522
v 0.309017 -1.500000 -0.951057
v 0.669131 -1.500000 -0.743145
v 0.913545 -1.500000 -0.406737
v 1.000000 -1.500000 -0.000000
v 1.000000 1.500000 0.000000
v 1.000000 -1.500000 0.000000
v 0.913545 1.500000 0.406737
v 0.913545 -1.500000 0.406737
v 0.669131 1.500000 0.743145
v 0.669131 -1.500000 0.743145
v 0.309017 1.500000 0.951057
v 0.309017 -1.500000 0.951057
v -0.104528 1.500000 0.994522
v -0.104528 -1.500000 0.994522
v -0.500000 1.500000 0.866025
v -0.500000 -1.500000 0.866025
v -0.809017 1.500000 0.587785
v -0.809017 -1.500000 0.587785
v -0.978148 1.500000 0.207912
v -0.978148 -1.500000 0.207912
v -0.978148 1.500000 -0.207912
v -0.978148 -1.500000 -0.207912
v -0.809017 1.500000 -0.587785
v -0.809017 -1.500000 -0.587785
v -0.500000 1.500000 -0.866025
v -0.500000 -1.500000 -0.866025
v -0.104528 1.500000 -0.994522
v -0.104528 -1.500000 -0.994522
v 0.309017 1.500000 -0.951057
v 0.309017 -1.500000 -0.951057
v 0.669131 1.500000 -0.743145
v 0.669131 -1.500000 -0.743145
v 0.913545 1.500000 -0.406737
v 0.913545 -1.500000 -0.406737
v 1.000000 1.500000 -0.000000
v 1.000000 -1.500000 -0.000000

vn -0.000000 -1.000000 -0.000000
vn -0.000000 -1.000000 -0.000000
vn -0.000000 -1.000000 -0.000000
vn -0.000000 -1.000000 -0.000000
vn -0.000000 -1.000000 -0.000000
vn -0.000000 -1.000000 0.000000
vn -0.000000 -1.000000 -0.000000
vn -0.000000 -1.000000 -0.000000
vn -0.000000 -1.000000 -0.000000
vn -0.000000 -1.000000 -0.000000
vn -0.000000 -1.000000 -0.000000
vn -0.000000 -1.000000 -0.000000
vn -0.000000 -1.000000 -0.000000
vn -0.000000 -1.000000 -0.000000
vn -0.000000 -1.000000 -0.000000
vn -0.000000 -1.000000 -0.000000
vn -0.000000 -1.000000 -0.000000
vn -0.000000 1.000000 -0.000000
vn -0.000000 1.000000 -0.000000
vn -0.000000 1.000000 -0.000000
vn -0.000000 1.000000 -0.000000
vn -0.000000 1.000000 -0.000000
vn -0.000000 1.000000 -0.000000
vn -0.000000 1.000000 -0.000000
vn -0.000000 1.000000 -0.000000
vn -0.000000 1.000000 -0.000000
vn 0.000000 1.000000 -0.000000
vn -0.000000 1.000000 -0.000000
vn -0.000000 1.000000 -0.000000
vn -0.000000 1.000000 -0.000000
vn -0.000000 1.000000 0.000000
vn -0.000000 1.000000 -0.000000
vn -0.000000 1.000000 -0.000000
vn -0.000000 1.000000 -0.000000
vn -0.978148 -0.000000 -0.207912
vn -0.978148 -0.000000 -0.207912
vn -0.978148 -0.000000 -0.207912
vn -0.978148 -0.000000 -0.207912
vn -0.809017 -0.000000 -0.587785
vn -0.809017 -0.000000 -0.587785
vn -0.500000 -0.000000 -0.866025
vn -0.500000 -0.000000 -0.866025
vn -0.104528 -0.000000 -0.994522
vn -0.104528 -0.000000 -0.994522
vn 0.309017 -0.000000 -0.951057
vn 0.309017 -0.000000 -0.951057
vn 0.669131 -0.000000 -0.743145
vn 0.669131 -0.000000 -0.743145
vn 0.913545 -0.000000 -0.406737
vn 0.913545 -0.000000 -0.406737
vn 1.000000 -0.000000 0.000000
vn 1.000000 -0.000000 0.000000
vn 0.913545 -0.000000 0.406737
vn 0.913545 -0.000000 0.406737
vn 0.669131 -0.000000 0.743145
vn 0.669131 -0.000000 0.743145
vn 0.309017 -0.000000 0.951057
vn 0.309017 -0.000000 0.951057
vn -0.104528 -0.000000 0.994522
vn -0.104528 -0.000000 0.994522
vn -0.500000 -0.000000 0.866025
vn -0.500000 -0.000000 0.866025
vn -0.809017 -0.000000 0.587785
vn -0.809017 -0.000000 0.587785
vn -0.978148 -0.000000 0.207912
vn -0.978148 -0.000000 0.207912

vt 0.250000 0.250000
vt 0.490000 0.250000
vt 0.469251 0.152383
vt 0.410591 0.071645
vt 0.324164 0.021746
vt 0.224913 0.011315
vt 0.130000 0.042154
vt 0.055836 0.108932
vt 0.015245 0.200101
vt 0.015245 0.299899
vt 0.055836 0.391068
vt 0.130000 0.457846
vt 0.224913 0.488685
vt 0.324164 0.478254
vt 0.410591 0.428355
vt 0.469251 0.347617
vt 0.490000 0.250000
vt 0.750000 0.250000
vt 0.990000 0.250000
vt 0.969251 0.347617
vt 0.910591 0.428355
vt 0.824164 0.478254
vt 0.724913 0.488685
vt 0.630000 0.457846
vt 0.555836 0.391068
vt 0.515245 0.299899
vt 0.515245 0.200101
vt 0.555836 0.108932
vt 0.630000 0.042154
vt 0.724913 0.011315
vt 0.824164 0.021746
vt 0.910591 0.071645
vt 0.969251 0.152383
vt 0.990000 0.250000
vt 0.000000 0.500000
vt 0.000000 1.000000
vt 0.066667 0.500000
vt 0.066667 1.000000
vt 0.133333 0.500000
vt 0.133333 1.000000
vt 0.200000 0.500000
vt 0.200000 1.000000
vt 0.266667 0.500000
vt 0.266667 1.000000
vt 0.333333 0.500000
vt 0.333333 1.000000
vt 0.400000 0.500000
vt 0.400000 1.000000
vt 0.466667 0.500000
vt 0.466667 1.000000
vt 0.533333 0.500000
vt 0.533333 1.000000
vt 0.600000 0.500000
vt 0.600000 1.000000
vt 0.666667 0.500000
vt 0.666667 1.000000
vt 0.733333 0.500000
vt 0.733333 1.000000
vt 0.800000 0.500000
vt 0.800000 1.000000
vt 0.866667 0.500000
vt 0.866667 1.000000
vt 0.933333 0.500000
vt 0.933333 1.000000
vt 1.000000 0.500000
vt 1.000000 1.000000

# Material: OilBarrelMaterial
usemtl OilBarrelMaterial
f 1/1/1 2/2/2 3/3/3
f 1/1/1 3/3/3 4/4/4
f 1/1/1 4/4/4 5/5/5
f 1/1/1 5/5/5 6/6/6
f 1/1/1 6/6/6 7/7/7
f 1/1/1 7/7/7 8/8/8
f 1/1/1 8/8/8 9/9/9
f 1/1/1 9/9/9 10/10/10
f 1/1/1 10/10/10 11/11/11
f 1/1/1 11/11/11 12/12/12
f 1/1/1 12/12/12 13/13/13
f 1/1/1 13/13/13 14/14/14
f 1/1/1 14/14/14 15/15/15
f 1/1/1 15/15/15 16/16/16
f 1/1/1 16/16/16 17/17/17
f 1/1/1 17/17/17 2/2/2
f 18/18/18 20/20/20 19/19/19
f 18/18/18 21/21/21 20/20/20
f 18/18/18 22/22/22 21/21/21
f 18/18/18 23/23/23 22/22/22
f 18/18/18 24/24/24 23/23/23
f 18/18/18 25/25/25 24/24/24
f 18/18/18 26/26/26 25/25/25
f 18/18/18 27/27/27 26/26/26
f 18/18/18 28/28/28 27/27/27
f 18/18/18 29/29/29 28/28/28
f 18/18/18 30/30/30 29/29/29
f 18/18/18 31/31/31 30/30/30
f 18/18/18 32/32/32 31/31/31
f 18/18/18 33/33/33 32/32/32
f 18/18/18 34/34/34 33/33/33
f 18/18/18 19/19/19 34/34/34
f 35/35/35 38/38/38 37/37/37
f 35/35/35 36/36/36 38/38/38
f 37/37/37 40/40/40 39/39/39
f 37/37/37 38/38/38 40/40/40
f 39/39/39 42/42/42 41/41/41
f 39/39/39 40/40/40 42/42/42
f 41/41/41 44/44/44 43/43/43
f 41/41/41 42/42/42 44/44/44
f 43/43/43 46/46/46 45/45/45
f 43/43/43 44/44/44 46/46/46
f 45/45/45 48/48/48 47/47/47
f 45/45/45 46/46/46 48/48/48
f 47/47/47 50/50/50 49/49/49
f 47/47/47 48/48/48 50/50/50
f 49/49/49 52/52/52 51/51/51
f 49/49/49 50/50/50 52/52/52
f 51/51/51 54/54/54 53/53/53
f 51/51/51 52/52/52 54/54/54
f 53/53/53 56/56/56 55/55/55
f 53/53/53 54/54/54 56/56/56
f 55/55/55 58/58/58 57/57/57
f 55/55/55 56/56/56 58/58/58
f 57/57/57 60/60/60 59/59/59
f 57/57/57 58/58/58 60/60/60
f 59/59/59 62/62/62 61/61/61
f 59/59/59 60/60/60 62/62/62
f 61/61/61 64/64/64 63/63/63
f 61/61/61 62/62/62 64/64/64
f 63/63/63 66/66/66 65/65/65
f 63/63/63 64/64/64 66/66/66
f 65/65/65 36/36/36 35/35/35
f 65/65/65 66/66/66 36/36/36

