# Blender 4.5.0
# www.blender.org
mtllib texcube.mtl
o texcube
v -0.250000 0.500000 -0.250000
v 0.250000 0.500000 -0.250000
v 0.250000 0.500000 0.250000
v -0.250000 0.500000 0.250000
v -0.250000 0.500000 0.250000
v 0.250000 0.500000 0.250000
v 0.250000 0.000000 0.250000
v -0.250000 0.000000 0.250000
v -0.250000 0.500000 -0.250000
v -0.250000 0.500000 0.250000
v -0.250000 0.000000 0.250000
v -0.250000 -0.000000 -0.250000
v 0.250000 0.500000 0.250000
v 0.250000 0.500000 -0.250000
v 0.250000 -0.000000 -0.250000
v 0.250000 0.000000 0.250000
v 0.250000 0.500000 -0.250000
v -0.250000 0.500000 -0.250000
v -0.250000 -0.000000 -0.250000
v 0.250000 -0.000000 -0.250000
v -0.250000 0.000000 0.250000
v 0.250000 0.000000 0.250000
v 0.250000 -0.000000 -0.250000
v -0.250000 -0.000000 -0.250000
v -0.250000 0.500000 0.250000
v 0.250000 0.500000 0.250000
v 0.250000 0.500000 0.250000
v 0.250000 0.500000 -0.250000
v 0.250000 0.500000 -0.250000
v -0.250000 0.500000 -0.250000
v -0.250000 0.500000 -0.250000
v -0.250000 0.500000 0.250000
v -0.250000 0.000000 0.250000
v 0.250000 0.000000 0.250000
v 0.250000 0.000000 0.250000
v 0.250000 -0.000000 -0.250000
v 0.250000 -0.000000 -0.250000
v -0.250000 -0.000000 -0.250000
v -0.250000 -0.000000 -0.250000
v -0.250000 0.000000 0.250000
v -0.250000 0.500000 0.250000
v -0.250000 0.000000 0.250000
v 0.250000 0.500000 0.250000
v 0.250000 0.000000 0.250000
v 0.250000 0.500000 -0.250000
v 0.250000 -0.000000 -0.250000
v -0.250000 0.500000 -0.250000
v -0.250000 -0.000000 -0.250000
v 0.250000 0.250000 -0.250000
v 0.250000 0.250000 -0.250000
v 0.250000 0.250000 0.250000
v -0.250000 0.250000 -0.250000
v -0.250000 0.250000 0.250000
v -0.250000 0.250000 -0.250000
v 0.250000 0.250000 -0.000000
v 0.250000 0.500000 -0.000000
v 0.250000 0.000000 0.000000
v -0.173892 0.465782 -0.173892
v 0.173892 0.465782 -0.173892
v 0.173892 0.465782 0.173892
v -0.173892 0.465782 0.173892
v -0.250000 0.500000 -0.250000
v 0.250000 0.500000 -0.250000
v 0.250000 0.500000 0.250000
v -0.250000 0.500000 0.250000
v -0.250000 0.500000 -0.250000
v 0.250000 0.500000 -0.250000
v 0.250000 0.500000 0.250000
v -0.250000 0.500000 0.250000
v -0.206930 0.500000 -0.206930
v 0.206930 0.500000 -0.206930
v 0.206930 0.500000 0.206929
v -0.206930 0.500000 0.206929
vn -0.0000 -0.0000 1.0000
vn -1.0000 -0.0000 -0.0000
vn 1.0000 -0.0000 -0.0000
vn -0.3071 -0.9008 0.3070
vn 0.3071 -0.9008 -0.3070
vn 0.3070 -0.9008 0.3071
vn -0.0000 -0.0000 -1.0000
vn -0.0000 1.0000 -0.0000
vn -0.9239 -0.0000 0.3827
vn -0.0000 -0.0000 -0.0000
vn -0.0000 -1.0000 -0.0000
vn -0.1131 -0.9871 -0.1131
vn 0.1131 -0.9871 -0.1131
vn 0.1131 -0.9871 0.1131
vn -0.1131 -0.9871 0.1131
vn -0.3071 -0.9008 -0.3071
vn 0.1131 -0.9871 -0.1130
vn 0.3070 -0.9008 -0.3071
vn 0.3070 -0.9008 -0.3070
vn 0.1130 -0.9871 0.1131
vn 0.3071 -0.9008 0.3071
vn -0.3070 -0.9008 0.3070
vn -0.1130 -0.9871 -0.1131
vn -0.1131 -0.9871 0.1130
vn -0.3070 -0.9008 0.3071
vn -0.3070 -0.9008 -0.3071
vn -0.1131 -0.9871 -0.1130
vn 0.1130 -0.9871 -0.1130
vn 0.1130 -0.9871 -0.1131
vn 0.1130 -0.9871 0.1130
vn -0.1130 -0.9871 0.1131
vn -0.1130 -0.9871 -0.1130
vn 0.1131 -0.9871 0.1130
vn -0.1130 -0.9871 0.1130
vt 0.666667 0.000000
vt 0.333333 0.333333
vt 0.333333 0.000000
vt 1.000000 0.500000
vt 0.833333 0.333333
vt 1.000000 0.333333
vt 0.166666 0.333333
vt 0.333333 0.666667
vt 0.166666 0.666667
vt 0.384072 0.615928
vt 0.615928 0.384072
vt 0.615928 0.615928
vt 0.333333 1.000000
vt 0.666667 0.666667
vt 0.666667 1.000000
vt 0.000000 0.333333
vt 0.833333 0.500000
vt 0.666667 0.333333
vt 1.000000 0.666667
vt 0.000000 0.666667
vt 0.833333 0.666667
vt 0.666667 0.500000
vt 0.000000 0.000000
vt 0.362047 0.362047
vt 0.637953 0.362047
vt 0.637953 0.637953
vt 0.362047 0.637953
vt 0.384072 0.384072
s 0
usemtl texBoxMaterial
f 20/1/1 18/2/1 19/3/1
f 57/4/2 50/5/2 15/6/2
f 54/7/3 10/8/3 53/9/3
f 61/10/4 59/11/5 60/12/6
f 8/13/7 6/14/7 7/15/7
f 24/16/8 22/3/8 23/2/8
f 55/17/2 14/18/2 50/5/2
f 16/19/2 55/17/2 57/4/2
f 12/16/3 53/9/3 11/20/3
f 51/21/2 56/22/2 55/17/2
f 63/18/9 1/2/3 2/18/7
f 64/23/10 2/23/10 3/23/10
f 62/23/10 4/23/10 1/23/10
f 65/8/1 3/14/1 4/8/7
f 67/18/11 62/2/1 63/18/1
f 68/23/10 63/23/10 64/23/10
f 66/23/10 65/23/10 62/23/10
f 69/8/8 64/14/2 65/8/1
f 70/24/12 67/18/11 71/25/13
f 71/25/13 68/14/11 72/26/14
f 73/27/15 66/2/11 70/24/12
f 72/26/14 69/8/11 73/27/15
f 58/28/16 71/25/17 59/11/18
f 59/11/19 72/26/20 60/12/21
f 61/10/22 70/24/23 58/28/16
f 60/12/21 73/27/24 61/10/25
f 20/1/1 17/18/1 18/2/1
f 57/4/2 55/17/2 50/5/2
f 54/7/3 9/2/3 10/8/3
f 61/10/4 58/28/26 59/11/5
f 8/13/7 5/8/7 6/14/7
f 24/16/8 21/23/8 22/3/8
f 55/17/2 56/22/2 14/18/2
f 16/19/2 51/21/2 55/17/2
f 12/16/3 54/7/3 53/9/3
f 51/21/2 13/14/2 56/22/2
f 63/18/9 62/2/1 1/2/2
f 64/23/10 63/23/10 2/23/10
f 62/23/10 65/23/10 4/23/10
f 65/8/1 64/14/7 3/14/1
f 67/18/11 66/2/7 62/2/1
f 68/23/10 67/23/10 63/23/10
f 66/23/10 69/23/10 65/23/10
f 69/8/8 68/14/7 64/14/2
f 70/24/12 66/2/11 67/18/11
f 71/25/13 67/18/11 68/14/11
f 73/27/15 69/8/11 66/2/11
f 72/26/14 68/14/11 69/8/11
f 58/28/26 70/24/27 71/25/28
f 59/11/5 71/25/29 72/26/30
f 61/10/4 73/27/31 70/24/32
f 60/12/6 72/26/33 73/27/34
l 25 26
l 27 28
l 29 30
l 31 32
l 33 34
l 35 36
l 37 38
l 39 40
l 41 42
l 43 44
l 49 46
l 52 48
l 47 52
l 45 49
